HIERARCHY
ROOT Hips
{
	OFFSET 0.0000 0.0000 0.0000
	CHANNELS 6 Xposition Yposition Zposition Zrotation Xrotation Yrotation
	JOINT Ab
	{
		OFFSET -0.0000 8.0846 -0.0000
		CHANNELS 3 Zrotation Xrotation Yrotation
		JOINT Chest
		{
			OFFSET -0.0000 25.0068 -0.0000
			CHANNELS 3 Zrotation Xrotation Yrotation
			JOINT Neck
			{
				OFFSET -0.0000 25.0068 0.0000
				CHANNELS 3 Zrotation Xrotation Yrotation
				JOINT Head
				{
					OFFSET -0.0000 10.7556 0.0000
					CHANNELS 3 Zrotation Xrotation Yrotation
					End Site
					{
						OFFSET -0.0000 16.6222 0.0000
					}
				}
			}
			JOINT LeftCollar
			{
				OFFSET -0.0000 25.0068 0.0000
				CHANNELS 3 Zrotation Xrotation Yrotation
				JOINT LeftShoulder
				{
					OFFSET 19.5556 -0.0000 0.0000
					CHANNELS 3 Zrotation Xrotation Yrotation
					JOINT LeftElbow
					{
						OFFSET 27.1828 0.0000 0.0000
						CHANNELS 3 Zrotation Xrotation Yrotation
						JOINT LeftWrist
						{
							OFFSET 23.3157 0.0000 0.0000
							CHANNELS 3 Zrotation Xrotation Yrotation
							End Site
							{
								OFFSET 0.0000 -14.6667 0.0000
							}
						}
					}
				}
			}
			JOINT RightCollar
			{
				OFFSET -0.0000 25.0068 0.0000
				CHANNELS 3 Zrotation Xrotation Yrotation
				JOINT RightShoulder
				{
					OFFSET -19.5556 0.0000 0.0000
					CHANNELS 3 Zrotation Xrotation Yrotation
					JOINT RightElbow
					{
						OFFSET -27.1828 0.0000 0.0000
						CHANNELS 3 Zrotation Xrotation Yrotation
						JOINT RightWrist
						{
							OFFSET -23.3157 0.0000 0.0000
							CHANNELS 3 Zrotation Xrotation Yrotation
							End Site
							{
								OFFSET -0.0000 -14.6667 0.0000
							}
						}
					}
				}
			}
		}
	}
	JOINT LeftHip
	{
		OFFSET 11.7333 0.0000 0.0000
		CHANNELS 3 Zrotation Xrotation Yrotation
		JOINT LeftKnee
		{
			OFFSET -0.0000 -40.8688 0.0000
			CHANNELS 3 Zrotation Xrotation Yrotation
			JOINT LeftAnkle
			{
				OFFSET -0.0000 -44.4337 0.0000
				CHANNELS 3 Zrotation Xrotation Yrotation
				End Site
				{
					OFFSET -0.0000 -4.8889 16.6222
				}
			}
		}
	}
	JOINT RightHip
	{
		OFFSET -11.7333 0.0000 0.0000
		CHANNELS 3 Zrotation Xrotation Yrotation
		JOINT RightKnee
		{
			OFFSET -0.0000 -40.8688 0.0000
			CHANNELS 3 Zrotation Xrotation Yrotation
			JOINT RightAnkle
			{
				OFFSET -0.0000 -44.4337 0.0000
				CHANNELS 3 Zrotation Xrotation Yrotation
				End Site
				{
					OFFSET -0.0000 -4.8889 16.6222
				}
			}
		}
	}
}
MOTION
Frames: 22
Frame Time: 0.010000
1.0445 87.1943 107.8948 1.3242 353.8701 176.6025 1.8900 7.0606 1.8159 353.9629 5.6344 2.2262 2.9078 336.2136 0.2285 0.9576 5.2757 359.5540 342.4853 357.2716 17.5540 293.6088 37.5676 10.0925 30.5201 349.2180 323.5672 88.6828 356.8727 359.8492 19.9020 358.9570 354.1716 33.5122 50.9116 36.1714 327.1495 346.6862 43.5506 270.9318 348.6334 10.8804 3.5204 335.4531 355.6576 356.2093 17.5218 1.6320 348.0943 347.4527 25.0686 0.9729 352.0422 1.0266 357.9853 35.5214 8.5597 358.5843 342.6811 340.6199 
0.9530 86.8035 106.6091 1.4350 353.9574 176.4796 1.8334 6.9767 1.8756 353.9553 5.6291 2.2797 2.8255 336.3633 0.0819 1.2787 5.1702 359.4237 342.3725 357.2629 17.3880 293.6069 37.1063 10.0040 30.9530 349.4107 324.1060 88.8141 357.1091 359.6295 19.9384 358.9660 354.1451 33.4295 50.5600 36.0126 327.6054 346.9094 43.5854 270.7431 348.3204 11.2505 3.6405 335.3434 356.0254 356.0516 19.0909 0.8945 349.2108 347.8998 25.0968 0.9984 351.7632 1.2088 357.8259 37.5498 8.7200 358.3428 342.5864 340.7324 
0.8875 86.5014 105.6463 1.6118 354.2673 176.3255 1.9825 7.0751 1.8578 353.7666 5.6564 2.2825 2.9823 336.4755 0.0285 1.4063 5.1953 359.3387 342.3691 357.2742 17.2782 293.5954 36.6703 10.1100 31.1105 349.4951 324.4068 89.1190 357.3284 359.3408 20.0102 358.9698 354.1473 33.1314 50.2590 36.1986 327.9494 347.0525 43.6557 270.8391 348.2900 11.5407 3.7742 335.6720 356.2604 355.9397 20.2998 0.3679 353.4923 349.4444 23.6943 1.1359 351.7992 1.2655 357.6765 39.1231 9.3525 358.6467 342.0780 340.6097 
0.7730 86.1729 104.4997 1.6625 354.4178 176.0098 1.9019 7.0245 1.9709 353.6333 5.6003 2.3926 3.2889 336.5318 0.0712 1.5291 5.2824 359.3175 342.3494 357.2643 17.3458 293.5559 36.0880 10.2464 31.3301 349.5461 324.6375 88.9552 357.6410 358.9435 20.0275 358.9872 354.2758 33.2627 49.9369 35.9423 328.3237 347.1920 43.8145 271.0948 348.0226 12.0362 3.8440 335.8743 356.5706 355.6407 21.8798 359.6314 355.8409 349.4259 22.0074 1.1056 351.5820 1.2689 357.3339 40.9896 10.0924 359.0024 341.7064 340.6075 
0.5217 85.8088 102.6790 1.4161 354.5359 175.5038 1.4948 6.8195 2.1629 353.3774 5.5937 2.5685 3.7156 336.4324 0.0574 1.6734 5.5325 359.1901 342.2824 357.2434 17.3415 293.7026 35.6939 10.4287 31.5796 349.6261 324.9787 88.9406 357.9464 358.5764 20.0773 358.9696 354.2184 33.7005 49.7122 35.4067 328.6244 347.2412 44.0974 271.4571 348.1031 12.7360 3.4315 336.1825 357.3686 355.4512 23.7525 358.6297 356.7177 350.1088 22.9742 0.6098 351.1692 1.2591 356.8188 43.7798 10.7508 0.1151 341.5711 341.2816 
0.3580 85.5331 101.3909 1.2179 354.7599 175.1927 1.1716 6.8097 2.1690 353.2644 5.6668 2.5644 4.0020 336.3429 0.0826 1.8265 5.5985 359.1539 342.2647 357.2873 16.7225 293.9967 33.0481 10.7971 30.4816 350.0227 324.3497 89.1606 358.4568 356.7527 20.1155 358.9430 353.9912 33.8509 49.5535 35.2568 329.1039 347.4256 44.2162 271.1698 348.0728 13.2061 3.1942 336.6130 357.4833 355.1550 24.8238 358.7686 357.0674 349.9631 22.6542 0.3926 350.6168 1.3926 356.2537 46.3725 11.4479 1.2436 341.5566 341.6013 
0.1992 85.3121 100.1376 0.9645 354.9430 175.0438 0.7667 6.8361 2.1171 353.2165 5.6836 2.4916 4.2422 336.3439 0.1300 2.0033 5.4568 359.1437 342.0933 357.2911 16.4213 294.2774 32.3808 10.7195 30.5162 349.9539 324.3621 89.0675 358.6507 356.3087 20.1432 358.9093 353.8224 34.4364 49.5025 34.6842 329.3960 347.5102 44.2928 271.0988 348.0319 13.6804 3.0203 336.9578 357.3252 354.4574 25.9486 359.0167 357.3121 349.5416 22.7655 0.1640 349.8439 1.6182 356.0875 49.1816 11.2392 359.5701 343.4838 341.4362 
0.0379 85.1338 98.8852 0.6650 355.1435 175.0060 0.3052 6.9073 2.0617 353.2149 5.6432 2.4062 4.3844 336.3415 0.0649 2.1275 5.3878 359.0351 341.8412 357.3068 15.9315 294.8223 31.2208 10.6426 30.1496 350.0990 324.0743 89.1675 358.8266 355.4613 20.1518 358.8897 353.7285 35.6457 49.3751 33.5141 329.7509 347.6363 44.3969 270.9211 347.8213 14.1028 2.7194 337.3198 357.3567 353.8424 27.0724 358.8834 357.7012 348.9816 23.1404 359.8583 348.9479 1.9270 356.5256 52.1354 9.8124 359.0289 344.8301 341.9012 
-0.1099 85.0100 97.6502 0.3584 355.3570 175.0776 359.9582 7.0101 1.9327 353.0193 5.6408 2.2643 4.7293 336.2126 0.0746 2.0624 5.5151 358.9671 341.6868 357.3580 15.4733 295.2733 31.0244 10.2261 30.2960 349.9875 324.2745 88.7543 358.9748 354.9529 20.2411 358.8590 353.6384 37.3963 48.9989 31.8779 330.3419 347.8957 44.5589 270.4331 347.6684 14.5923 2.3301 337.7977 357.6817 353.5187 27.9751 358.8986 358.0777 348.5845 22.7822 359.4988 347.9264 2.1886 357.3153 55.1758 7.8432 359.8413 345.7677 343.0070 
-0.2499 84.9192 96.4349 0.1100 355.5430 175.2756 359.5898 7.1193 1.7573 353.0836 5.5535 2.0599 4.8837 336.2746 0.0611 1.9949 5.5678 358.9296 341.3818 357.3890 14.8346 295.8162 30.5427 9.8478 30.1621 350.0325 324.1182 88.7638 359.1918 354.3814 20.2281 358.8720 353.6286 39.4673 48.6136 29.7872 330.9478 348.1330 44.7105 269.8482 347.5164 15.0868 2.0088 338.4198 357.9269 353.1945 28.5514 359.0001 358.7425 348.2695 22.5571 359.1558 346.8483 2.2105 358.1543 58.0362 5.7405 0.4320 347.1439 343.7923 
-0.3897 84.8515 95.2310 359.8964 355.6422 175.5244 359.3643 7.0391 1.5454 353.0905 5.6330 1.8401 4.9645 336.3871 0.0684 1.9697 5.5531 358.9309 341.1298 357.4361 14.1139 296.3705 29.5598 9.3383 29.7579 350.2477 323.6945 88.8080 359.3477 353.5863 20.2919 358.8624 353.5713 41.2532 48.0532 27.9801 331.7464 348.4842 44.7451 269.5577 347.4825 15.4272 1.7986 339.0790 358.5073 353.0034 28.9331 358.5147 358.8639 347.6578 22.4436 358.7931 345.6353 2.0753 358.7928 60.7687 4.4700 1.1797 348.1885 344.1161 
-0.4642 84.7707 93.9308 359.6862 355.9724 175.8642 358.9546 7.0848 1.2669 353.3576 5.9266 1.5398 4.9345 336.3556 0.1061 2.0401 5.5586 358.9766 340.6192 357.4790 13.3773 297.3337 29.1872 8.2218 29.6670 350.1558 323.1760 88.8847 359.8752 352.9811 20.3946 358.8333 353.4284 42.9022 47.4853 26.2210 332.6594 348.9726 44.3114 268.8408 347.1448 15.8745 1.5667 340.1401 359.1233 352.8125 29.1334 358.0478 359.4644 347.2125 22.1644 358.4808 344.6967 2.2969 0.0090 63.1492 3.0066 359.6416 348.9063 344.0275 
-0.5805 84.7452 92.7172 359.5582 355.9281 176.2195 358.8634 6.9631 0.9000 353.4755 5.8911 1.1737 4.7908 336.5256 0.1642 2.1744 5.5777 359.0626 340.1834 357.5363 12.8222 298.3049 29.2881 6.8548 29.7856 349.9973 323.1111 88.8234 359.8763 352.5315 20.5478 358.7989 353.2742 44.3650 47.0884 24.4679 333.6509 349.5450 43.7221 267.9437 346.8075 16.3937 1.3162 340.8477 359.5748 352.7713 29.3268 357.7045 359.6974 346.5715 21.9190 358.2357 343.2821 2.2300 0.8042 65.2206 2.1065 358.3634 349.3940 343.7837 
-0.6870 84.7635 91.4737 359.5611 355.9950 176.6738 358.7569 6.7794 0.7218 353.6970 6.1409 0.9851 5.2166 336.6729 0.2853 1.6333 5.5688 359.1199 339.7956 357.6089 12.3025 299.4762 29.9143 5.1964 30.0348 349.8348 323.1864 89.3542 359.7980 352.6193 20.5998 358.7814 353.1755 46.2687 46.3353 22.3820 334.7199 350.1285 43.3399 267.2976 346.4782 17.2678 1.0271 341.7824 359.8644 353.0588 29.2455 357.2720 359.8909 346.0531 21.5865 358.1008 342.0637 2.0853 1.8451 66.8912 1.1456 358.0752 349.1172 343.1193 
-0.7707 84.8137 90.2582 359.6562 355.9978 177.1522 358.8514 6.7357 0.4004 353.8774 6.0434 0.6527 5.3727 336.9474 0.3196 1.3663 5.6421 359.1550 339.5078 357.6889 11.7658 300.5638 30.5572 3.6157 30.3112 349.6807 323.3266 89.2600 359.3988 352.7671 20.6751 358.7300 352.9126 48.0596 45.6458 20.1892 335.8174 350.6892 43.0442 266.9514 346.2648 18.2805 0.8414 342.7343 359.9137 353.2950 28.9855 356.9479 359.2400 345.4961 21.1584 358.0680 340.7919 2.0398 3.1525 68.1678 359.7134 357.5788 348.7815 342.5208 
-0.8700 84.8811 89.0398 359.7506 355.9483 177.5923 359.0666 6.6609 359.9860 354.0090 5.8858 0.2348 5.3678 337.2266 0.4080 1.2674 5.8402 359.2774 339.2886 357.7779 11.2689 301.5187 30.6628 2.1041 30.3553 349.6708 323.1061 89.7380 359.2287 353.1860 20.7016 358.6827 352.6828 49.7274 45.0305 18.0089 336.9699 351.2491 42.8099 266.7469 346.0719 19.2872 0.6477 343.7529 359.7264 353.5001 28.4700 356.7741 359.1613 345.1566 21.0629 358.0199 339.4300 1.9171 4.1140 69.1315 358.9027 357.9692 348.1541 342.0003 
-0.8846 84.8941 88.2016 359.9231 355.9126 177.9367 359.2309 6.7223 359.7112 354.1789 5.6923 359.9481 5.5313 337.2964 0.5925 0.9975 6.1446 359.4434 339.1360 357.8380 11.0582 302.3294 30.5294 0.7088 30.3800 349.6370 322.9492 89.7290 358.9715 352.9710 20.6515 358.6672 352.5720 50.9241 44.7744 16.2658 337.6646 351.4633 42.8546 266.8055 346.1463 19.6599 0.6534 344.5131 359.5078 353.6997 27.9748 356.6455 0.8119 345.3276 21.3984 358.0904 338.5958 1.9508 4.9450 69.1960 357.5755 357.9633 347.8283 342.2694 
-0.9493 85.1316 86.5846 0.2601 356.0842 178.6010 359.3657 6.9223 359.1688 354.8547 5.4184 359.3664 5.5311 337.5295 0.6664 0.7978 6.6165 359.5385 338.9877 357.9236 10.5725 303.2914 31.6363 358.7906 30.9377 349.3043 322.9068 89.9737 358.3512 353.8814 20.4887 358.6167 351.9624 52.6080 44.3792 13.9256 338.6862 351.9129 42.7389 267.8033 345.9131 20.5715 0.5615 346.2038 358.8367 353.8963 27.0234 356.5720 1.3667 345.0747 21.4674 358.4236 337.1269 1.8074 6.2723 69.6529 355.6769 356.7461 347.1188 342.1805 
-0.9671 85.2980 85.3644 0.5236 356.1247 179.1195 359.5046 7.0326 358.6994 355.3528 5.2200 358.8722 5.7717 337.7401 0.9938 0.5074 6.8059 359.8491 339.0001 357.9778 10.4755 304.1066 32.3108 357.0547 31.4999 349.0252 322.8876 89.7275 357.8896 354.3328 20.2610 358.5759 351.6515 53.7886 44.2894 12.0481 339.5907 352.2806 42.6707 268.1533 345.2643 21.6075 0.5522 347.4637 358.3028 354.1078 26.1709 356.4173 1.0675 344.8135 21.4601 358.6697 335.9591 1.7815 7.2876 69.4975 354.7111 356.6470 346.6685 341.6407 
-0.9727 85.4701 84.1691 0.7891 356.1132 179.6181 359.6356 7.1160 358.2162 355.8531 5.0448 358.3874 5.8941 337.7860 1.2555 0.3703 7.1412 0.0943 339.0968 358.0309 10.4323 305.0588 33.3139 355.2622 32.2938 348.6548 323.2047 89.4723 357.2187 355.0994 20.0215 358.5344 351.2488 54.7631 44.2088 10.3949 340.5829 352.7023 42.6639 268.4289 344.9759 22.9709 0.5886 348.6431 357.9061 354.3329 25.3735 356.3474 0.7222 344.5396 21.2925 358.9337 334.7040 1.7675 8.4497 69.1980 353.3645 356.0042 346.0887 341.3396 
-0.9609 85.6487 82.9566 1.0443 356.1589 180.0923 359.6765 7.2640 357.7817 356.4576 4.8799 357.9176 6.1492 337.7739 1.5984 0.0663 7.5117 0.4220 339.1148 358.0125 10.8898 306.6268 36.4166 352.7042 34.3888 347.9353 324.4398 88.9085 356.5869 357.6405 19.7340 358.4927 350.8391 55.6539 44.1647 8.8096 341.5841 353.1135 42.6650 268.5891 344.6927 24.4743 0.6475 349.8978 357.5399 354.6111 24.5218 356.2140 0.3585 344.3913 21.1532 359.2059 333.5540 1.7788 8.9571 68.5977 352.8142 355.0515 345.8489 341.1270 
-0.9625 85.8336 81.7787 1.2268 355.9968 180.5918 359.6486 7.2750 357.3582 357.0920 4.6327 357.4529 6.4859 337.8746 1.9113 359.6045 7.6307 0.6896 339.2118 358.0039 10.9675 307.8759 38.1899 350.7431 35.8031 347.6964 324.9908 88.8649 356.4619 359.3727 19.4380 358.4418 350.3483 56.5566 44.0658 7.1899 342.5454 353.4887 42.7125 268.7493 344.4824 26.0531 0.6449 350.9084 357.0782 354.9019 23.6191 356.1883 0.1635 344.4411 21.0443 359.3561 332.1739 1.7084 9.1667 67.8364 353.2990 355.1381 345.7962 340.4145 
